<svg version="1" xmlns="http://www.w3.org/2000/svg" width="1365.333" height="1365.333" viewBox="0 0 1024.000000 1024.000000"><path d="M816 83.9c-9.6 3.1-15.9 7.1-35.5 22.6-4.9 4-10.8 8.2-13 9.5-2.2 1.3-4.2 2.7-4.5 3.2-1.1 1.5-9.9 4.8-16.6 6.2-11.6 2.4-20.4 2.9-32.4 1.6-12.5-1.3-42.2-6.7-43-7.9-.6-.8-39.4-8.4-67-13-36-6.1-53.1-7.5-91.5-7.6-36.5 0-52.5 1.1-80 5.5-26.9 4.3-65.5 13.2-65.5 15.1 0 .5-.9.9-2 .9-3.5 0-49.4 15.7-63.3 21.6-17.4 7.4-37.1 17-39.9 19.5-1.3 1.1-8.1 5.8-15.3 10.4-21.3 13.8-30.8 21-45.5 34.3-12.7 11.6-41 40.3-41 41.6 0 .6-2.5 3.8-5.6 7.1-6.2 6.7-14.9 17.8-21.1 27-4 6-16.1 29.4-22.4 43.5-1.8 4.1-3.7 7.7-4.1 8-.4.3-2.4 4.2-4.4 8.5-16.7 36.7-27.8 79.2-32 122.5-2 21.5-1.5 66 1 83.7 2.4 16.5 8.1 44.7 12.6 61.8 6.8 25.6 7.9 29.1 13.6 44.3 3.1 8.1 6.3 16.4 7 18.5.8 2.1 1.9 4.4 2.4 5 .5.7 6.2 11.7 12.6 24.5 10.7 21.2 27.7 49.6 30.9 51.5.7.4 2.7 2.8 4.3 5.5 6.9 11.1 31.8 39.3 45.7 51.8 16.4 14.8 31 26.4 36.7 29.3 1.4.7 3.9 2.5 5.5 4 1.6 1.4 5.7 4.7 9 7.2 3.3 2.6 9.8 9.1 14.5 14.5 4.7 5.5 11.7 12.4 15.6 15.4 4 2.9 7.2 5.8 7.2 6.2 0 1.5 21.1 14.8 32.2 20.4 13.6 6.8 36.1 16.4 45.6 19.5 3.9 1.2 7.2 2.6 7.2 3.1 0 1.9 47.6 14.1 71.8 18.3 63.1 11.2 93.7 14 147.7 13.2 45.1-.7 70.2-3.5 106.6-11.7 25.2-5.7 61.9-17.7 61.9-20.1 0-.5.5-.9 1.2-.9 2.5 0 32.8-15.5 41.8-21.4 13.9-9.2 27.8-19.1 33.4-23.9 14.8-12.7 21.8-19.3 27.6-25.9 3.6-4 7.6-8.3 8.9-9.6 1.3-1.2 2.9-3.1 3.5-4.1.6-1 5.7-8.6 11.3-17 6.1-9 13.7-22.2 19-32.8 4.8-9.8 9.1-17.9 9.4-18.1 2-.9 15.6-38.2 20.4-55.9 11.5-42 16-75.7 16-121.3 0-50.1-4.2-74.4-19.3-112.2-4.4-10.8-6.9-21.4-8.7-36.4-3.9-32.4-6.7-48.4-8.4-48.4-.4 0-1.3-1.7-2-3.8-2.7-7.4-12.5-28.1-21.9-45.7-15.6-29.4-16.7-31.4-18.4-33.4-.9-1-4-5.4-6.9-9.7-2.9-4.4-7.1-10.4-9.3-13.4-2.3-3-4.8-6.6-5.6-8-.8-1.4-3.5-5.9-6-10.1-7.2-11.8-10.2-22-10.8-36.3-.7-17.6-.2-20 12.8-56.9 10.1-28.8 13.4-60.6 8-78-6.1-19.6-23.1-28.9-42-22.8zm-275.8 39.6c19.8 1.7 44.8 4.7 58.4 7 4.6.8 12.1 2.1 16.7 2.9 4.5.8 21.3 3.9 37.2 6.9 16 3 32.4 6.1 36.5 6.8 4.1.7 7.7 1.6 8 1.9.8 1 19 3 27.6 3 8.6 0 25.6-1.9 26.4-3 .3-.3 3.1-1.2 6.2-1.9 3.2-.7 14.9-4.4 26-8.2 22.8-7.8 28.1-8.5 33.8-4.6 4.7 3.1 6.8 7.2 8 15.6 1.4 9.8.3 18-5.9 42.7-7.6 30.6-8.6 46.1-4.5 66 2.8 13.7 11.9 35.5 17 40.8 2.2 2.2 10.7 14.6 14.6 21.3 1.3 2.1 6.9 11.5 12.5 20.8 5.6 9.4 11.4 19.8 12.9 23.2 1.4 3.5 3.1 6.3 3.6 6.3 1.5 0 12.7 24.5 16.9 37.1 4.6 13.8 7.2 25.7 9.4 43.4.9 7.1 2.7 17.5 4 23.1 2.7 11.2 10.2 34.6 11.5 35.4 1.4.9 5.8 16.4 8.4 29.6 7.7 39.6 8.3 71.5 2.1 113.4-2.8 18.3-9.4 51.2-10.5 52-.4.3-1.8 4.1-3 8.5-2.7 9.7-10.6 31.5-16.2 44.5-5.1 12-19.6 40.5-21.8 42.8-.9.9-3.6 4.6-6 8.2-12.7 18.9-21.3 30.3-28.6 37.5-7.6 7.6-10.3 9.9-26.8 22.3-3.9 2.9-7.3 5.6-7.6 6.1-2.1 3.1-30.7 18.1-46.7 24.5-18.2 7.2-40.5 12.9-62.3 15.7-5.2.7-9.8 1.7-10.2 2.3-1 1.6-53.6 1.5-54.6 0-.4-.6-5.9-1.7-12.2-2.3-30.5-3.2-71.9-14.2-101-26.8-13.6-5.9-26.4-12.3-26.8-13.4-.2-.5-.8-.9-1.3-.9-2.3 0-35.5-19.3-51.4-29.9-3.8-2.5-13.1-10.6-20.7-18s-15.4-14.5-17.3-15.8c-1.9-1.3-3.5-2.6-3.5-2.8 0-1.3 13.6-7 21.7-9.1 22.8-5.8 49.1-3.6 79.9 6.5 5 1.6 22.8 8.3 39.5 14.9 44.6 17.6 65.2 23.4 98.9 27.8 15.2 2 47.2 2.3 61.5.5 63.8-7.9 116.1-38.4 147.9-86.1 13.1-19.6 26-51.2 32-78 15.7-71.1 9.7-161.9-15.8-240.2-45-138.2-144.4-236.4-273.1-269.8-50.3-13-106.5-15.2-155.5-5.9-58.3 11-119.2 40-170.9 81.2-33 26.3-56.7 54.4-72.4 85.5-14.1 28-19.8 50.7-19.8 79.2-.1 41.2 14.1 82 44.3 127.3 10.9 16.4 19.8 28 41.4 53.9 32.7 39.2 44.8 58.5 51.2 81.8 5.9 21.3 5.3 43.7-1.4 58.7l-1.9 4.3-7.3-5.6c-4.1-3.1-10.4-8.5-14.2-12-3.7-3.5-7.2-6.4-7.7-6.4s-3.8-3-7.3-6.8c-3.5-3.7-14.6-15.1-24.6-25.4-10-10.2-19.5-20.4-21-22.5-1.6-2.1-5.4-6.7-8.5-10.3-3.1-3.6-9.6-11.7-14.4-18-4.8-6.3-9.3-11.9-10.1-12.3-.8-.4-1.4-1.2-1.4-1.8 0-.5-3.3-5.8-7.4-11.7-10.5-15.3-18.2-28.6-26.1-45.2-3.8-8-7.2-14.7-7.6-15-1.6-1.1-11.5-29.9-15.3-44.5-14.4-55.6-11.9-128.8 5.8-175.4 3.6-9.3 8.3-19.2 9.6-20.1.4-.3 2.9-3.9 5.4-8 14.9-23.9 24.2-35.4 48.8-59.5 19.6-19.3 22.6-21.8 44.8-37.6 6.9-4.9 13.2-9.5 14-10.3 2.8-2.5 9.9-6.6 26.2-14.9 18.5-9.6 24.5-12.1 48.3-20.9 9.4-3.4 17.2-6.6 17.5-7 .3-.4 3-1.4 6-2.2 3-.8 12-3.3 20-5.6 37.2-10.6 90.8-18.5 128.7-18.9 7.2 0 21.4.6 31.5 1.4z"/></svg>